<svg width="32" height="32" viewBox="0 0 32 32" fill="none" xmlns="http://www.w3.org/2000/svg">
<g clip-path="url(#clip0_586_466)">
<path d="M16 2.66675C8.63996 2.66675 2.66663 8.64008 2.66663 16.0001C2.66663 23.3601 8.63996 29.3334 16 29.3334C23.36 29.3334 29.3333 23.3601 29.3333 16.0001C29.3333 8.64008 23.36 2.66675 16 2.66675ZM16 8.00008C18.5733 8.00008 20.6666 10.0934 20.6666 12.6667C20.6666 15.2401 18.5733 17.3334 16 17.3334C13.4266 17.3334 11.3333 15.2401 11.3333 12.6667C11.3333 10.0934 13.4266 8.00008 16 8.00008ZM16 26.6667C13.2933 26.6667 10.0933 25.5734 7.81329 22.8267C10.0666 21.0667 12.9066 20.0001 16 20.0001C19.0933 20.0001 21.9333 21.0667 24.1866 22.8267C21.9066 25.5734 18.7066 26.6667 16 26.6667Z" fill="#718096"/>
</g>
<defs>
<clipPath id="clip0_586_466">
<rect width="32" height="32" fill="white"/>
</clipPath>
</defs>
</svg>
