<svg width="32" height="32" viewBox="0 0 32 32" fill="none" xmlns="http://www.w3.org/2000/svg">
<g clip-path="url(#clip0_586_123)">
<path d="M13.3333 21.3333V10.6667C13.3333 9.2 14.52 8 16 8H28V6.66667C28 5.2 26.8 4 25.3333 4H6.66667C5.18667 4 4 5.2 4 6.66667V25.3333C4 26.8 5.18667 28 6.66667 28H25.3333C26.8 28 28 26.8 28 25.3333V24H16C14.52 24 13.3333 22.8 13.3333 21.3333ZM17.3333 10.6667C16.6 10.6667 16 11.2667 16 12V20C16 20.7333 16.6 21.3333 17.3333 21.3333H29.3333V10.6667H17.3333ZM21.3333 18C20.2267 18 19.3333 17.1067 19.3333 16C19.3333 14.8933 20.2267 14 21.3333 14C22.44 14 23.3333 14.8933 23.3333 16C23.3333 17.1067 22.44 18 21.3333 18Z" fill="#718096"/>
</g>
<defs>
<clipPath id="clip0_586_123">
<rect width="32" height="32" fill="white"/>
</clipPath>
</defs>
</svg>
