<svg width="20" height="21" viewBox="0 0 20 21" fill="none" xmlns="http://www.w3.org/2000/svg">
<path d="M17.1816 7.79712H9.11247C8.12215 7.79712 7.31934 8.62845 7.31934 9.65396V18.0097C7.31934 19.0352 8.12215 19.8666 9.11247 19.8666H17.1816C18.1719 19.8666 18.9747 19.0352 18.9747 18.0097V9.65396C18.9747 8.62845 18.1719 7.79712 17.1816 7.79712Z" stroke="#222222" stroke-width="2" stroke-linecap="round" stroke-linejoin="round"/>
<path d="M3.73316 13.3674H2.8366C2.36103 13.3674 1.90493 13.1718 1.56866 12.8236C1.23238 12.4753 1.04346 12.0031 1.04346 11.5106V3.15481C1.04346 2.66235 1.23238 2.19005 1.56866 1.84183C1.90493 1.4936 2.36103 1.29797 2.8366 1.29797H10.9057C11.3813 1.29797 11.8374 1.4936 12.1737 1.84183C12.5099 2.19005 12.6989 2.66235 12.6989 3.15481V4.08323" stroke="#222222" stroke-width="2" stroke-linecap="round" stroke-linejoin="round"/>
</svg>
