<svg width="450" height="57" viewBox="0 0 450 57" fill="none" xmlns="http://www.w3.org/2000/svg">
<rect x="0.862793" y="0.729492" width="448.285" height="55.7052" rx="4" stroke="#34434B" stroke-opacity="0.15"/>
<path d="M427.182 25.7971H419.112C418.122 25.7971 417.319 26.6285 417.319 27.654V36.0097C417.319 37.0352 418.122 37.8666 419.112 37.8666H427.182C428.172 37.8666 428.975 37.0352 428.975 36.0097V27.654C428.975 26.6285 428.172 25.7971 427.182 25.7971Z" stroke="#222222" stroke-width="2" stroke-linecap="round" stroke-linejoin="round"/>
<path d="M413.733 31.3674H412.837C412.361 31.3674 411.905 31.1718 411.569 30.8236C411.232 30.4753 411.043 30.0031 411.043 29.5106V21.1548C411.043 20.6623 411.232 20.1901 411.569 19.8418C411.905 19.4936 412.361 19.298 412.837 19.298H420.906C421.381 19.298 421.837 19.4936 422.174 19.8418C422.51 20.1901 422.699 20.6623 422.699 21.1548V22.0832" stroke="#222222" stroke-width="2" stroke-linecap="round" stroke-linejoin="round"/>
</svg>
