<svg width="28" height="28" viewBox="0 0 28 28" fill="none" xmlns="http://www.w3.org/2000/svg">
<path d="M13.9998 0.666748C6.63984 0.666748 0.666504 6.64008 0.666504 14.0001C0.666504 21.3601 6.63984 27.3334 13.9998 27.3334C21.3598 27.3334 27.3332 21.3601 27.3332 14.0001C27.3332 6.64008 21.3598 0.666748 13.9998 0.666748ZM13.9998 6.00008C16.5732 6.00008 18.6665 8.09341 18.6665 10.6667C18.6665 13.2401 16.5732 15.3334 13.9998 15.3334C11.4265 15.3334 9.33317 13.2401 9.33317 10.6667C9.33317 8.09341 11.4265 6.00008 13.9998 6.00008ZM13.9998 24.6667C11.2932 24.6667 8.09317 23.5734 5.81317 20.8267C8.0665 19.0667 10.9065 18.0001 13.9998 18.0001C17.0932 18.0001 19.9332 19.0667 22.1865 20.8267C19.9065 23.5734 16.7065 24.6667 13.9998 24.6667Z" fill="#718096"/>
</svg>
