<svg width="24" height="24" viewBox="0 0 24 24" fill="none" xmlns="http://www.w3.org/2000/svg">
<path d="M17.8333 12.8671L11.4315 13.2935C11.01 13.3165 10.621 13.0627 10.4647 12.6627C10.3983 12.4594 10.3659 12.2462 10.3689 12.0319C10.2382 9.97059 10.0989 7.90929 9.96822 5.81245C9.93846 5.72163 9.89748 5.63505 9.84629 5.55479C9.64061 5.11247 9.16798 4.86776 8.69658 4.9595C4.80252 5.81906 2.01951 9.32706 2.00737 13.3913C2.00138 13.7212 2.02177 14.051 2.06834 14.3775C2.18842 15.4794 2.52303 16.5457 3.05256 17.5139C4.85339 20.8754 8.6132 22.621 12.2809 21.7982C15.9485 20.9755 18.6436 17.782 18.8959 13.9599C18.9005 13.6795 18.7958 13.4087 18.6047 13.207C18.4135 13.0054 18.1517 12.8895 17.8768 12.8848L17.8333 12.8671Z" fill="white"/>
</svg>
