<svg width="24" height="24" viewBox="0 0 24 24" fill="none" xmlns="http://www.w3.org/2000/svg">
<path d="M17.8333 12.8671L11.4315 13.2936C11.01 13.3166 10.621 13.0628 10.4647 12.6628C10.3983 12.4595 10.3659 12.2462 10.3689 12.0319C10.2382 9.97065 10.0989 7.90935 9.96822 5.81251C9.93846 5.72169 9.89748 5.63511 9.84629 5.55485C9.64061 5.11254 9.16798 4.86782 8.69658 4.95956C4.80252 5.81912 2.01951 9.32712 2.00737 13.3913C2.00138 13.7212 2.02177 14.0511 2.06834 14.3776C2.18842 15.4794 2.52303 16.5458 3.05256 17.5139C4.85339 20.8755 8.6132 22.621 12.2809 21.7983C15.9485 20.9756 18.6436 17.7821 18.8959 13.96C18.9005 13.6796 18.7958 13.4087 18.6047 13.2071C18.4135 13.0055 18.1517 12.8896 17.8768 12.8849L17.8333 12.8671Z" fill="white"/>
</svg>
