<svg width="28" height="28" viewBox="0 0 28 28" fill="none" xmlns="http://www.w3.org/2000/svg">
<path d="M14 7.51343V11.3984" stroke="#718096" stroke-width="1.5" stroke-miterlimit="10" stroke-linecap="round"/>
<path d="M14.0232 2.33325C9.72988 2.33325 6.25321 5.80992 6.25321 10.1033V12.5533C6.25321 13.3466 5.92655 14.5366 5.51821 15.2133L4.03655 17.6866C3.12655 19.2149 3.75655 20.9183 5.43655 21.4783C11.0132 23.3333 17.0449 23.3333 22.6215 21.4783C24.1965 20.9533 24.8732 19.1099 24.0215 17.6866L22.5399 15.2133C22.1315 14.5366 21.8049 13.3349 21.8049 12.5533V10.1033C21.7932 5.83325 18.2932 2.33325 14.0232 2.33325Z" stroke="#718096" stroke-width="1.5" stroke-miterlimit="10" stroke-linecap="round"/>
<path d="M17.8852 21.9568C17.8852 24.0918 16.1352 25.8418 14.0002 25.8418C12.9386 25.8418 11.9586 25.3985 11.2586 24.6985C10.5586 23.9985 10.1152 23.0185 10.1152 21.9568" stroke="#718096" stroke-width="1.5" stroke-miterlimit="10"/>
</svg>
