<svg width="20" height="24" viewBox="0 0 20 24" fill="none" xmlns="http://www.w3.org/2000/svg">
<path d="M0.610747 20.6097C0.387506 20.878 0.262133 21.2418 0.262207 21.6211C0.262282 22.0003 0.387798 22.3641 0.611144 22.6322C0.83449 22.9003 1.13737 23.0509 1.45316 23.0508C1.76894 23.0508 2.07176 22.9 2.295 22.6317L9.64636 13.8029C9.66479 13.7807 9.68669 13.7631 9.71079 13.7511C9.7349 13.7391 9.76074 13.7329 9.78684 13.7329C9.81294 13.7329 9.83879 13.7391 9.86289 13.7511C9.887 13.7631 9.9089 13.7807 9.92733 13.8029L17.2787 22.6336C17.3892 22.7665 17.5205 22.8718 17.6649 22.9438C17.8093 23.0157 17.9642 23.0527 18.1205 23.0527C18.2769 23.0528 18.4317 23.0158 18.5762 22.944C18.7207 22.8722 18.852 22.7669 18.9625 22.6341C19.0731 22.5013 19.1609 22.3437 19.2207 22.1702C19.2806 21.9967 19.3114 21.8108 19.3115 21.623C19.3115 21.4352 19.2808 21.2492 19.221 21.0757C19.1612 20.9021 19.0735 20.7444 18.9629 20.6116L11.6124 11.779C11.5939 11.7568 11.5792 11.7305 11.5692 11.7016C11.5592 11.6726 11.5541 11.6416 11.5541 11.6102C11.5541 11.5789 11.5592 11.5479 11.5692 11.5189C11.5792 11.4899 11.5939 11.4636 11.6124 11.4415L18.9645 2.61173C19.1878 2.34321 19.3131 1.97918 19.3128 1.59971C19.3126 1.22024 19.1869 0.856414 18.9633 0.588277C18.7398 0.320141 18.4367 0.169654 18.1208 0.169922C17.8048 0.17019 17.5019 0.321192 17.2787 0.589707L9.92733 9.41758C9.9089 9.43977 9.887 9.45738 9.86289 9.4694C9.83879 9.48141 9.81294 9.48759 9.78684 9.48759C9.76074 9.48759 9.7349 9.48141 9.71079 9.4694C9.68669 9.45738 9.66479 9.43977 9.64636 9.41758L2.295 0.589707C2.18446 0.456877 2.05323 0.351498 1.90878 0.279587C1.76434 0.207676 1.60952 0.170641 1.45316 0.170596C1.13737 0.170507 0.83449 0.321094 0.611144 0.589231C0.387798 0.857367 0.262281 1.22109 0.262207 1.60038C0.262133 1.97967 0.387506 2.34346 0.610747 2.61173L7.96131 11.4415C7.97979 11.4636 7.99445 11.4899 8.00445 11.5189C8.01445 11.5479 8.0196 11.5789 8.0196 11.6102C8.0196 11.6416 8.01445 11.6726 8.00445 11.7016C7.99445 11.7305 7.97979 11.7568 7.96131 11.779L0.610747 20.6097Z" fill="#CBD5E0"/>
</svg>
