<svg width="297" height="34" viewBox="0 0 297 34" fill="none" xmlns="http://www.w3.org/2000/svg">
<path d="M6.46995 2.3501H15.53C16.59 2.3501 17.84 3.1201 18.31 4.0701L20.71 8.8901C21.29 10.0501 20.97 11.7001 20.02 12.5701L13.09 18.8601C11.94 19.9001 10.07 19.9001 8.91996 18.8601L1.98996 12.5701C1.02996 11.7001 0.719955 10.0501 1.29996 8.8901L3.69996 4.0701C4.15996 3.1201 5.40996 2.3501 6.46995 2.3501Z" stroke="#17191C" stroke-width="1.5" stroke-miterlimit="10" stroke-linecap="round" stroke-linejoin="round"/>
<path d="M11 13.5V7.5" stroke="#17191C" stroke-width="1.5" stroke-miterlimit="10" stroke-linecap="round" stroke-linejoin="round"/>
<path d="M7 7.5H15" stroke="#17191C" stroke-width="1.5" stroke-miterlimit="10" stroke-linecap="round" stroke-linejoin="round"/>
<path d="M280.47 1.3501H289.53C290.59 1.3501 291.84 2.1201 292.31 3.0701L294.71 7.8901C295.29 9.0501 294.97 10.7001 294.02 11.5701L287.09 17.8601C285.94 18.9001 284.07 18.9001 282.92 17.8601L275.99 11.5701C275.03 10.7001 274.72 9.0501 275.3 7.8901L277.7 3.0701C278.16 2.1201 279.41 1.3501 280.47 1.3501Z" stroke="#17191C" stroke-width="1.5" stroke-miterlimit="10" stroke-linecap="round" stroke-linejoin="round"/>
<path d="M285 12.5V6.5" stroke="#17191C" stroke-width="1.5" stroke-miterlimit="10" stroke-linecap="round" stroke-linejoin="round"/>
<path d="M281 6.5H289" stroke="#17191C" stroke-width="1.5" stroke-miterlimit="10" stroke-linecap="round" stroke-linejoin="round"/>
</svg>
