<svg width="24" height="24" viewBox="0 0 24 24" fill="none" xmlns="http://www.w3.org/2000/svg">
<path d="M6.10999 17.4998C3.89999 15.4298 2 12.4798 2 8.67981C2 5.58981 4.49 3.08984 7.56 3.08984C9.38 3.08984 10.99 3.96983 12 5.32983C13.01 3.96983 14.63 3.08984 16.44 3.08984C17.59 3.08984 18.66 3.4398 19.55 4.0498" stroke="white" stroke-width="1.5" stroke-linecap="round" stroke-linejoin="round"/>
<path d="M21.74 7C21.91 7.53 22 8.1 22 8.69C22 15.69 15.52 19.82 12.62 20.82C12.28 20.94 11.72 20.94 11.38 20.82C10.73 20.6 9.91002 20.22 9.02002 19.69" stroke="white" stroke-width="1.5" stroke-linecap="round" stroke-linejoin="round"/>
<path d="M22 2L2 22" stroke="white" stroke-width="1.5" stroke-linecap="round" stroke-linejoin="round"/>
</svg>
