<svg width="24" height="25" viewBox="0 0 24 25" fill="none" xmlns="http://www.w3.org/2000/svg">
<rect width="24" height="24" transform="translate(0 0.769043)" fill="white"/>
<path d="M6.10999 18.2691C3.89999 16.1991 2 13.2491 2 9.4491C2 6.3591 4.49 3.85913 7.56 3.85913C9.38 3.85913 10.99 4.73912 12 6.09912C13.01 4.73912 14.63 3.85913 16.44 3.85913C17.59 3.85913 18.66 4.20909 19.55 4.81909" stroke="#292D32" stroke-width="1.5" stroke-linecap="round" stroke-linejoin="round"/>
<path d="M21.74 7.76904C21.91 8.29904 22 8.86905 22 9.45905C22 16.459 15.52 20.5891 12.62 21.5891C12.28 21.7091 11.72 21.7091 11.38 21.5891C10.73 21.3691 9.91002 20.989 9.02002 20.459" stroke="#292D32" stroke-width="1.5" stroke-linecap="round" stroke-linejoin="round"/>
<path d="M22 2.76904L2 22.769" stroke="#292D32" stroke-width="1.5" stroke-linecap="round" stroke-linejoin="round"/>
</svg>
