<svg width="32" height="32" viewBox="0 0 32 32" fill="none" xmlns="http://www.w3.org/2000/svg">
<g clip-path="url(#clip0_586_586)">
<path d="M16.0003 2.66663C8.64033 2.66663 2.66699 8.63996 2.66699 16C2.66699 23.36 8.64033 29.3333 16.0003 29.3333C23.3603 29.3333 29.3337 23.36 29.3337 16C29.3337 8.63996 23.3603 2.66663 16.0003 2.66663ZM16.0003 7.99996C18.5737 7.99996 20.667 10.0933 20.667 12.6666C20.667 15.24 18.5737 17.3333 16.0003 17.3333C13.427 17.3333 11.3337 15.24 11.3337 12.6666C11.3337 10.0933 13.427 7.99996 16.0003 7.99996ZM16.0003 26.6666C13.2937 26.6666 10.0937 25.5733 7.81366 22.8266C10.067 21.0666 12.907 20 16.0003 20C19.0937 20 21.9337 21.0666 24.187 22.8266C21.907 25.5733 18.707 26.6666 16.0003 26.6666Z" fill="#718096"/>
</g>
<defs>
<clipPath id="clip0_586_586">
<rect width="32" height="32" fill="white"/>
</clipPath>
</defs>
</svg>
