<svg width="22" height="20" viewBox="0 0 22 20" fill="none" xmlns="http://www.w3.org/2000/svg">
<path d="M5.26379 15.5001C3.05379 13.4301 1.15381 10.4801 1.15381 6.68005C1.15381 3.59005 3.64381 1.09009 6.71381 1.09009C8.53381 1.09009 10.1438 1.97008 11.1538 3.33008C12.1638 1.97008 13.7838 1.09009 15.5938 1.09009C16.7438 1.09009 17.8138 1.44005 18.7038 2.05005" stroke="#292D32" stroke-width="1.5" stroke-linecap="round" stroke-linejoin="round"/>
<path d="M20.8938 5C21.0638 5.53 21.1538 6.1 21.1538 6.69C21.1538 13.69 14.6738 17.82 11.7738 18.82C11.4338 18.94 10.8738 18.94 10.5338 18.82C9.88381 18.6 9.06383 18.22 8.17383 17.69" stroke="#292D32" stroke-width="1.5" stroke-linecap="round" stroke-linejoin="round"/>
</svg>
