<svg width="17" height="18" viewBox="0 0 17 18" fill="none" xmlns="http://www.w3.org/2000/svg">
<path d="M15.8333 8.86713L9.43149 9.29361C9.00995 9.31659 8.62099 9.0628 8.46469 8.66278C8.39829 8.45947 8.3659 8.24622 8.36888 8.03195C8.23823 5.97065 8.09887 3.90935 7.96822 1.81251C7.93846 1.72169 7.89748 1.63511 7.84629 1.55485C7.64061 1.11254 7.16798 0.867818 6.69658 0.959558C2.80252 1.81912 0.0195072 5.32712 0.00736906 9.39134C0.00137562 9.72123 0.0217663 10.0511 0.0683384 10.3776C0.188416 11.4794 0.523034 12.5458 1.05256 13.5139C2.85339 16.8755 6.6132 18.621 10.2809 17.7983C13.9485 16.9756 16.6436 13.7821 16.8959 9.95998C16.9005 9.67955 16.7958 9.40873 16.6047 9.2071C16.4135 9.00548 16.1517 8.88958 15.8768 8.8849V8.8849L15.8333 8.86713Z" fill="#F9F9FA"/>
</svg>
