<svg width="28" height="29" viewBox="0 0 28 29" fill="none" xmlns="http://www.w3.org/2000/svg">
<path d="M23.7045 5.04544C21.1889 2.43426 17.8387 0.998108 14.2785 0.998108C6.92981 0.998108 0.95001 7.19034 0.95001 14.8001C0.95001 17.2309 1.5624 19.6059 2.72714 21.701L0.835938 28.8507L7.90242 26.9296C9.84766 28.03 12.0391 28.6082 14.2725 28.6082H14.2785C21.6211 28.6082 27.733 22.416 27.733 14.8063C27.733 11.1195 26.2201 7.65662 23.7045 5.04544V5.04544ZM14.2785 26.283C12.2852 26.283 10.334 25.7297 8.63489 24.6852L8.23263 24.4366L4.04197 25.5743L5.15868 21.3405L4.89451 20.9053C3.78381 19.0774 3.20144 16.9698 3.20144 14.8001C3.20144 8.47728 8.1726 3.32952 14.2845 3.32952C17.2444 3.32952 20.0241 4.5232 22.1134 6.69297C24.2028 8.86274 25.4876 11.7413 25.4816 14.8063C25.4816 21.1353 20.3843 26.283 14.2785 26.283V26.283ZM20.3543 17.691C20.0241 17.5169 18.3851 16.6838 18.0789 16.5719C17.7727 16.4538 17.5506 16.3979 17.3284 16.746C17.1063 17.0942 16.4699 17.8651 16.2717 18.1013C16.0796 18.3314 15.8815 18.3625 15.5513 18.1884C13.594 17.175 12.3092 16.3792 11.0184 14.0851C10.6762 13.4758 11.3606 13.5193 11.997 12.2013C12.1051 11.9713 12.0511 11.7723 11.967 11.5983C11.883 11.4242 11.2165 9.72691 10.9404 9.03682C10.6702 8.36537 10.394 8.45863 10.1899 8.44619C9.99776 8.43376 9.77561 8.43376 9.55347 8.43376C9.33133 8.43376 8.9711 8.5208 8.66491 8.86274C8.35871 9.21089 7.50017 10.044 7.50017 11.7413C7.50017 13.4385 8.69493 15.0798 8.85703 15.3099C9.02514 15.5399 11.2045 19.0215 14.5486 20.5198C16.662 21.4648 17.4905 21.5456 18.5472 21.384C19.1896 21.2845 20.5164 20.5509 20.7926 19.7427C21.0688 18.9344 21.0688 18.2443 20.9847 18.1013C20.9067 17.9459 20.6845 17.8589 20.3543 17.691Z" fill="#25D366"/>
</svg>
