<svg width="28" height="27" viewBox="0 0 28 27" fill="none" xmlns="http://www.w3.org/2000/svg">
<path d="M24.2147 10.2321C23.3643 10.2321 22.616 10.5961 22.0661 11.1655C20.0422 9.71555 17.3154 8.78214 14.2938 8.68235L15.8641 1.35602L20.8642 2.51837C20.8642 3.78639 21.862 4.81959 23.0865 4.81959C24.3337 4.81959 25.3371 3.75703 25.3371 2.48902C25.3371 1.221 24.3394 0.158447 23.0865 0.158447C22.2135 0.158447 21.4595 0.7044 21.0853 1.44995L15.5637 0.181929C15.2859 0.105613 15.0138 0.311079 14.9401 0.598731L13.2167 8.67648C10.2177 8.80563 7.51928 9.73903 5.48975 11.189C4.93985 10.5961 4.16319 10.2321 3.31283 10.2321C0.160835 10.2321 -0.870934 14.6115 2.01462 16.1085C1.91258 16.5722 1.86722 17.0654 1.86722 17.5585C1.86722 22.4779 7.21882 26.4639 13.7893 26.4639C20.388 26.4639 25.7396 22.4779 25.7396 17.5585C25.7396 17.0654 25.6886 16.5488 25.5639 16.085C28.3928 14.5822 27.3497 10.2321 24.2147 10.2321V10.2321ZM6.58955 16.4196C6.58955 15.1281 7.58731 14.089 8.84017 14.089C10.0647 14.089 11.0624 15.1222 11.0624 16.4196C11.0624 17.6876 10.0647 18.7208 8.84017 18.7208C7.59297 18.7267 6.58955 17.6876 6.58955 16.4196V16.4196ZM18.7383 21.9085C16.6748 24.0453 10.8527 24.0453 8.78915 21.9085C8.56238 21.703 8.56238 21.339 8.78915 21.1042C8.98756 20.8988 9.33904 20.8988 9.53746 21.1042C11.1135 22.7773 16.3403 22.8067 17.9844 21.1042C18.1828 20.8988 18.5343 20.8988 18.7327 21.1042C18.9651 21.339 18.9651 21.703 18.7383 21.9085ZM18.693 18.7267C17.4685 18.7267 16.4707 17.6935 16.4707 16.4255C16.4707 15.134 17.4685 14.0949 18.693 14.0949C19.9402 14.0949 20.9436 15.1281 20.9436 16.4255C20.9379 17.6876 19.9402 18.7267 18.693 18.7267Z" fill="#FF4500"/>
</svg>
