<svg width="28" height="23" viewBox="0 0 28 23" fill="none" xmlns="http://www.w3.org/2000/svg">
<path d="M24.4092 5.95676C24.4263 6.20417 24.4263 6.45164 24.4263 6.69905C24.4263 14.2454 18.8796 22.9405 8.74196 22.9405C5.61873 22.9405 2.71741 22.0038 0.276855 20.378C0.720606 20.431 1.14723 20.4487 1.60806 20.4487C4.18509 20.4487 6.5574 19.5474 8.45181 18.0098C6.02833 17.9568 3.99739 16.3132 3.29764 14.051C3.639 14.104 3.98031 14.1394 4.33875 14.1394C4.83367 14.1394 5.32864 14.0686 5.78941 13.945C3.26355 13.4148 1.36908 11.1173 1.36908 8.34263V8.27196C2.10292 8.69612 2.95633 8.96121 3.8608 8.99651C2.37599 7.97146 1.40323 6.22185 1.40323 4.24246C1.40323 3.1821 1.67624 2.21008 2.15414 1.36177C4.86776 4.82568 8.94673 7.08779 13.5206 7.33525C13.4353 6.9111 13.384 6.46932 13.384 6.02748C13.384 2.88165 15.8417 0.319092 18.8966 0.319092C20.4838 0.319092 21.9174 1.00834 22.9243 2.12174C24.1702 1.87433 25.3648 1.39713 26.423 0.743247C26.0134 2.06875 25.143 3.18215 23.9995 3.88903C25.1089 3.76537 26.1841 3.44719 27.1739 3.00541C26.4231 4.13644 25.4844 5.14376 24.4092 5.95676V5.95676Z" fill="#1DA1F2"/>
</svg>
