<svg width="20" height="24" viewBox="0 0 20 24" fill="none" xmlns="http://www.w3.org/2000/svg">
<path d="M0.610869 20.6097C0.387628 20.878 0.262255 21.2418 0.262329 21.6211C0.262404 22.0003 0.38792 22.3641 0.611266 22.6322C0.834612 22.9003 1.13749 23.0509 1.45328 23.0508C1.76906 23.0508 2.07188 22.9 2.29512 22.6317L9.64648 13.8029C9.66491 13.7807 9.68681 13.7631 9.71091 13.7511C9.73502 13.7391 9.76087 13.7329 9.78697 13.7329C9.81307 13.7329 9.83891 13.7391 9.86302 13.7511C9.88712 13.7631 9.90902 13.7807 9.92745 13.8029L17.2788 22.6336C17.3893 22.7665 17.5206 22.8718 17.665 22.9438C17.8095 23.0157 17.9643 23.0527 18.1207 23.0527C18.277 23.0528 18.4319 23.0158 18.5763 22.944C18.7208 22.8722 18.8521 22.7669 18.9627 22.6341C19.0733 22.5013 19.161 22.3437 19.2209 22.1702C19.2807 21.9967 19.3116 21.8108 19.3116 21.623C19.3116 21.4352 19.2809 21.2492 19.2211 21.0757C19.1613 20.9021 19.0736 20.7444 18.9631 20.6116L11.6125 11.779C11.594 11.7568 11.5794 11.7305 11.5694 11.7016C11.5594 11.6726 11.5542 11.6416 11.5542 11.6102C11.5542 11.5789 11.5594 11.5479 11.5694 11.5189C11.5794 11.4899 11.594 11.4636 11.6125 11.4415L18.9646 2.61173C19.1879 2.34321 19.3132 1.97918 19.313 1.59971C19.3127 1.22024 19.187 0.856414 18.9635 0.588277C18.7399 0.320141 18.4368 0.169654 18.1209 0.169922C17.805 0.17019 17.502 0.321192 17.2788 0.589707L9.92745 9.41758C9.90902 9.43977 9.88712 9.45738 9.86302 9.4694C9.83891 9.48141 9.81307 9.48759 9.78697 9.48759C9.76087 9.48759 9.73502 9.48141 9.71091 9.4694C9.68681 9.45738 9.66491 9.43977 9.64648 9.41758L2.29512 0.589707C2.18459 0.456877 2.05335 0.351498 1.90891 0.279587C1.76446 0.207676 1.60964 0.170641 1.45328 0.170596C1.13749 0.170507 0.834612 0.321094 0.611266 0.589231C0.38792 0.857367 0.262404 1.22109 0.262329 1.60038C0.262255 1.97967 0.387628 2.34346 0.610869 2.61173L7.96143 11.4415C7.97991 11.4636 7.99457 11.4899 8.00457 11.5189C8.01458 11.5479 8.01973 11.5789 8.01973 11.6102C8.01973 11.6416 8.01458 11.6726 8.00457 11.7016C7.99457 11.7305 7.97991 11.7568 7.96143 11.779L0.610869 20.6097Z" fill="#CBD5E0"/>
</svg>
