<svg width="24" height="25" viewBox="0 0 24 25" fill="none" xmlns="http://www.w3.org/2000/svg">
<rect width="24" height="24" transform="translate(0 0.0229492)" fill="white"/>
<path d="M6.10999 17.523C3.89999 15.453 2 12.503 2 8.703C2 5.613 4.49 3.11304 7.56 3.11304C9.38 3.11304 10.99 3.99303 12 5.35303C13.01 3.99303 14.63 3.11304 16.44 3.11304C17.59 3.11304 18.66 3.463 19.55 4.073" stroke="#292D32" stroke-width="1.5" stroke-linecap="round" stroke-linejoin="round"/>
<path d="M21.74 7.02295C21.91 7.55295 22 8.12295 22 8.71295C22 15.713 15.52 19.843 12.62 20.843C12.28 20.963 11.72 20.963 11.38 20.843C10.73 20.623 9.91002 20.243 9.02002 19.713" stroke="#292D32" stroke-width="1.5" stroke-linecap="round" stroke-linejoin="round"/>
<path d="M22 2.02295L2 22.0229" stroke="#292D32" stroke-width="1.5" stroke-linecap="round" stroke-linejoin="round"/>
</svg>
