<svg width="25" height="25" viewBox="0 0 25 25" fill="none" xmlns="http://www.w3.org/2000/svg">
<rect width="24" height="24" transform="translate(0.153809 0.53833)" fill="white"/>
<path d="M6.26379 18.0384C4.05379 15.9684 2.15381 13.0184 2.15381 9.21838C2.15381 6.12838 4.64381 3.62842 7.71381 3.62842C9.53381 3.62842 11.1438 4.50841 12.1538 5.86841C13.1638 4.50841 14.7838 3.62842 16.5938 3.62842C17.7438 3.62842 18.8138 3.97838 19.7038 4.58838" stroke="#292D32" stroke-width="1.5" stroke-linecap="round" stroke-linejoin="round"/>
<path d="M21.8938 7.53833C22.0638 8.06833 22.1538 8.63833 22.1538 9.22833C22.1538 16.2283 15.6738 20.3583 12.7738 21.3583C12.4338 21.4783 11.8738 21.4783 11.5338 21.3583C10.8838 21.1383 10.0638 20.7583 9.17383 20.2283" stroke="#292D32" stroke-width="1.5" stroke-linecap="round" stroke-linejoin="round"/>
<path d="M22.1538 2.53833L2.15381 22.5383" stroke="#292D32" stroke-width="1.5" stroke-linecap="round" stroke-linejoin="round"/>
</svg>
