<svg width="24" height="25" viewBox="0 0 24 25" fill="none" xmlns="http://www.w3.org/2000/svg">
<rect width="24" height="24" transform="translate(0 0.845703)" fill="white"/>
<path d="M6.10999 18.3458C3.89999 16.2758 2 13.3258 2 9.52576C2 6.43576 4.49 3.93579 7.56 3.93579C9.38 3.93579 10.99 4.81578 12 6.17578C13.01 4.81578 14.63 3.93579 16.44 3.93579C17.59 3.93579 18.66 4.28575 19.55 4.89575" stroke="#292D32" stroke-width="1.5" stroke-linecap="round" stroke-linejoin="round"/>
<path d="M21.74 7.8457C21.91 8.3757 22 8.94571 22 9.53571C22 16.5357 15.52 20.6657 12.62 21.6657C12.28 21.7857 11.72 21.7857 11.38 21.6657C10.73 21.4457 9.91002 21.0657 9.02002 20.5357" stroke="#292D32" stroke-width="1.5" stroke-linecap="round" stroke-linejoin="round"/>
<path d="M22 2.8457L2 22.8457" stroke="#292D32" stroke-width="1.5" stroke-linecap="round" stroke-linejoin="round"/>
</svg>
