<svg width="24" height="25" viewBox="0 0 24 25" fill="none" xmlns="http://www.w3.org/2000/svg">
<rect width="24" height="24" transform="translate(0 0.0766602)" fill="white"/>
<path d="M6.10999 17.5767C3.89999 15.5067 2 12.5567 2 8.75671C2 5.66671 4.49 3.16675 7.56 3.16675C9.38 3.16675 10.99 4.04674 12 5.40674C13.01 4.04674 14.63 3.16675 16.44 3.16675C17.59 3.16675 18.66 3.51671 19.55 4.12671" stroke="#292D32" stroke-width="1.5" stroke-linecap="round" stroke-linejoin="round"/>
<path d="M21.74 7.07666C21.91 7.60666 22 8.17666 22 8.76666C22 15.7667 15.52 19.8967 12.62 20.8967C12.28 21.0167 11.72 21.0167 11.38 20.8967C10.73 20.6767 9.91002 20.2967 9.02002 19.7667" stroke="#292D32" stroke-width="1.5" stroke-linecap="round" stroke-linejoin="round"/>
<path d="M22 2.07666L2 22.0767" stroke="#292D32" stroke-width="1.5" stroke-linecap="round" stroke-linejoin="round"/>
</svg>
