<svg width="24" height="25" viewBox="0 0 24 25" fill="none" xmlns="http://www.w3.org/2000/svg">
<rect width="24" height="24" transform="translate(0 0.153809)" fill="white"/>
<path d="M6.10999 17.6539C3.89999 15.5839 2 12.6339 2 8.83386C2 5.74386 4.49 3.2439 7.56 3.2439C9.38 3.2439 10.99 4.12389 12 5.48389C13.01 4.12389 14.63 3.2439 16.44 3.2439C17.59 3.2439 18.66 3.59386 19.55 4.20386" stroke="#292D32" stroke-width="1.5" stroke-linecap="round" stroke-linejoin="round"/>
<path d="M21.74 7.15381C21.91 7.68381 22 8.25381 22 8.84381C22 15.8438 15.52 19.9738 12.62 20.9738C12.28 21.0938 11.72 21.0938 11.38 20.9738C10.73 20.7538 9.91002 20.3738 9.02002 19.8438" stroke="#292D32" stroke-width="1.5" stroke-linecap="round" stroke-linejoin="round"/>
<path d="M22 2.15381L2 22.1538" stroke="#292D32" stroke-width="1.5" stroke-linecap="round" stroke-linejoin="round"/>
</svg>
