<svg width="25" height="25" viewBox="0 0 25 25" fill="none" xmlns="http://www.w3.org/2000/svg">
<rect width="24" height="24" transform="translate(0.153809 0.61499)" fill="white"/>
<path d="M6.26379 18.1151C4.05379 16.0451 2.15381 13.095 2.15381 9.29504C2.15381 6.20504 4.64381 3.70508 7.71381 3.70508C9.53381 3.70508 11.1438 4.58507 12.1538 5.94507C13.1638 4.58507 14.7838 3.70508 16.5938 3.70508C17.7438 3.70508 18.8138 4.05504 19.7038 4.66504" stroke="#292D32" stroke-width="1.5" stroke-linecap="round" stroke-linejoin="round"/>
<path d="M21.8938 7.61499C22.0638 8.14499 22.1538 8.71499 22.1538 9.30499C22.1538 16.305 15.6738 20.435 12.7738 21.435C12.4338 21.555 11.8738 21.555 11.5338 21.435C10.8838 21.215 10.0638 20.835 9.17383 20.305" stroke="#292D32" stroke-width="1.5" stroke-linecap="round" stroke-linejoin="round"/>
<path d="M22.1538 2.61499L2.15381 22.615" stroke="#292D32" stroke-width="1.5" stroke-linecap="round" stroke-linejoin="round"/>
</svg>
